<svg width="44" height="44" viewBox="0 0 44 44" fill="none" xmlns="http://www.w3.org/2000/svg">
<path d="M22.2812 21.6764V21.8835L22.4277 22.03L25.2718 24.8741C25.3817 24.9839 25.3816 25.162 25.2718 25.2718L25.2718 25.2718C25.162 25.3816 24.9839 25.3816 24.8741 25.2718L21.8011 22.1989L21.8011 22.1988C21.7484 22.1461 21.7188 22.0746 21.7188 22V17.3906C21.7188 17.2353 21.8447 17.1094 22 17.1094C22.1553 17.1094 22.2812 17.2353 22.2812 17.3906V21.6764ZM13.8847 13.6984V14.7958L14.7128 14.0757C15.9113 13.0334 17.4084 12.5 18.9271 12.5H25.0729C28.6164 12.5 31.5 15.3836 31.5 18.9271V25.0729C31.5 28.6164 28.6164 31.5 25.0729 31.5H18.9271C15.3836 31.5 12.5 28.6164 12.5 25.0729V22C12.5 21.8447 12.6259 21.7188 12.7812 21.7188C12.9366 21.7188 13.0625 21.8447 13.0625 22V25.0729C13.0625 28.3071 15.6929 30.9375 18.9271 30.9375H25.0729C28.3071 30.9375 30.9375 28.3071 30.9375 25.0729V18.9271C30.9375 15.6929 28.3071 13.0625 25.0729 13.0625H18.9271C17.3898 13.0625 15.9314 13.6719 14.8515 14.713L13.9595 15.5729H15.1986H16.6764C16.8317 15.5729 16.9577 15.6988 16.9577 15.8542C16.9577 16.0095 16.8317 16.1354 16.6764 16.1354H13.6035C13.4499 16.1354 13.3222 16.0083 13.3222 15.8542V12.7812C13.3222 12.6259 13.4481 12.5 13.6035 12.5C13.7588 12.5 13.8847 12.6259 13.8847 12.7812V13.6984Z" fill="#383635" stroke="#383635"/>
</svg>
