<svg width="44" height="44" viewBox="0 0 44 44" fill="none" xmlns="http://www.w3.org/2000/svg">
<path d="M30 16.95V27.05C29.84 27.02 29.67 27 29.5 27C28.12 27 27 28.12 27 29.5C27 29.67 27.02 29.84 27.05 30H16.95C16.98 29.84 17 29.67 17 29.5C17 28.12 15.88 27 14.5 27C14.33 27 14.16 27.02 14 27.05V16.95C14.16 16.98 14.33 17 14.5 17C15.88 17 17 15.88 17 14.5C17 14.33 16.98 14.16 16.95 14H27.05C27.02 14.16 27 14.33 27 14.5C27 15.88 28.12 17 29.5 17C29.67 17 29.84 16.98 30 16.95Z" stroke="#383635" stroke-width="1.5" stroke-linecap="round" stroke-linejoin="round"/>
<path d="M17 14.5C17 15.88 15.88 17 14.5 17C14.33 17 14.16 16.98 14 16.95C12.86 16.72 12 15.71 12 14.5C12 13.12 13.12 12 14.5 12C15.71 12 16.72 12.86 16.95 14C16.98 14.16 17 14.33 17 14.5Z" stroke="#383635" stroke-width="1.5" stroke-linecap="round" stroke-linejoin="round"/>
<path d="M32 14.5C32 15.71 31.14 16.72 30 16.95C29.84 16.98 29.67 17 29.5 17C28.12 17 27 15.88 27 14.5C27 14.33 27.02 14.16 27.05 14C27.28 12.86 28.29 12 29.5 12C30.88 12 32 13.12 32 14.5Z" stroke="#383635" stroke-width="1.5" stroke-linecap="round" stroke-linejoin="round"/>
<path d="M17 29.5C17 29.67 16.98 29.84 16.95 30C16.72 31.14 15.71 32 14.5 32C13.12 32 12 30.88 12 29.5C12 28.29 12.86 27.28 14 27.05C14.16 27.02 14.33 27 14.5 27C15.88 27 17 28.12 17 29.5Z" stroke="#383635" stroke-width="1.5" stroke-linecap="round" stroke-linejoin="round"/>
<path d="M32 29.5C32 30.88 30.88 32 29.5 32C28.29 32 27.28 31.14 27.05 30C27.02 29.84 27 29.67 27 29.5C27 28.12 28.12 27 29.5 27C29.67 27 29.84 27.02 30 27.05C31.14 27.28 32 28.29 32 29.5Z" stroke="#383635" stroke-width="1.5" stroke-linecap="round" stroke-linejoin="round"/>
<circle cx="10" cy="14" r="2" fill="#197BE6"/>
</svg>
