<svg width="44" height="44" viewBox="0 0 44 44" fill="none" xmlns="http://www.w3.org/2000/svg">
<path d="M29.4 22C29.96 22 30.24 22 30.454 21.891C30.6422 21.7951 30.7951 21.6422 30.891 21.454C31 21.24 31 20.96 31 20.4V18.2C31 17.64 31 17.36 30.891 17.146C30.7951 16.9578 30.6422 16.8049 30.454 16.709C30.24 16.6 29.96 16.6 29.4 16.6H27.85C27.6113 16.6 27.3824 16.5052 27.2136 16.3364C27.0448 16.1676 26.95 15.9387 26.95 15.7C26.95 14.9839 26.6655 14.2972 26.1592 13.7908C25.6528 13.2845 24.9661 13 24.25 13C23.5339 13 22.8472 13.2845 22.3408 13.7908C21.8345 14.2972 21.55 14.9839 21.55 15.7C21.55 15.9387 21.4552 16.1676 21.2864 16.3364C21.1176 16.5052 20.8887 16.6 20.65 16.6H19.1C18.54 16.6 18.26 16.6 18.046 16.709C17.8578 16.8049 17.7049 16.9578 17.609 17.146C17.5 17.36 17.5 17.64 17.5 18.2V20.4C17.5 20.96 17.5 21.24 17.391 21.454C17.2951 21.6422 17.1422 21.7951 16.954 21.891C16.74 22 16.46 22 15.9 22H15.7C15.3454 22 14.9943 22.0698 14.6668 22.2055C14.3392 22.3412 14.0415 22.5401 13.7908 22.7908C13.5401 23.0415 13.3412 23.3392 13.2055 23.6668C13.0698 23.9943 13 24.3454 13 24.7C13 25.0546 13.0698 25.4057 13.2055 25.7332C13.3412 26.0608 13.5401 26.3585 13.7908 26.6092C14.0415 26.8599 14.3392 27.0588 14.6668 27.1945C14.9943 27.3302 15.3454 27.4 15.7 27.4H15.9C16.46 27.4 16.74 27.4 16.954 27.509C17.1422 27.6049 17.2951 27.7578 17.391 27.946C17.5 28.16 17.5 28.44 17.5 29V29.4C17.5 29.96 17.5 30.24 17.609 30.454C17.7049 30.6422 17.8578 30.7951 18.046 30.891C18.26 31 18.54 31 19.1 31H29.4C29.96 31 30.24 31 30.454 30.891C30.6422 30.7951 30.7951 30.6422 30.891 30.454C31 30.24 31 29.96 31 29.4V29C31 28.44 31 28.16 30.891 27.946C30.7951 27.7578 30.6422 27.6049 30.454 27.509C30.24 27.4 29.96 27.4 29.4 27.4H29.2C28.4839 27.4 27.7972 27.1155 27.2908 26.6092C26.7845 26.1028 26.5 25.4161 26.5 24.7C26.5 23.9839 26.7845 23.2972 27.2908 22.7908C27.7972 22.2845 28.4839 22 29.2 22H29.4Z" stroke="#383635" stroke-width="1.5" stroke-linecap="round" stroke-linejoin="round"/>
</svg>
