<svg width="16" height="16" viewBox="0 0 16 16" fill="none" xmlns="http://www.w3.org/2000/svg">
<path d="M14.1667 6.10044C12.6267 3.68044 10.3733 2.28711 8.00001 2.28711C6.81334 2.28711 5.66001 2.63378 4.60668 3.28044C3.55334 3.93378 2.60668 4.88711 1.83334 6.10044C1.16668 7.14711 1.16668 8.84711 1.83334 9.89378C3.37334 12.3204 5.62668 13.7071 8.00001 13.7071C9.18668 13.7071 10.34 13.3604 11.3933 12.7138C12.4467 12.0604 13.3933 11.1071 14.1667 9.89378C14.8333 8.85378 14.8333 7.14711 14.1667 6.10044ZM8.00001 10.6938C6.50668 10.6938 5.30668 9.48711 5.30668 8.00044C5.30668 6.51378 6.50668 5.30711 8.00001 5.30711C9.49334 5.30711 10.6933 6.51378 10.6933 8.00044C10.6933 9.48711 9.49334 10.6938 8.00001 10.6938Z" fill="#151211"/>
<path d="M8.00001 6.09375C6.95334 6.09375 6.10001 6.94708 6.10001 8.00042C6.10001 9.04708 6.95334 9.90042 8.00001 9.90042C9.04667 9.90042 9.90667 9.04708 9.90667 8.00042C9.90667 6.95375 9.04667 6.09375 8.00001 6.09375Z" fill="#151211"/>
</svg>
