<svg width="44" height="44" viewBox="0 0 44 44" fill="none" xmlns="http://www.w3.org/2000/svg">
<path d="M23.7299 13.5096L25.4899 17.0296C25.7299 17.5196 26.3699 17.9896 26.9099 18.0796L30.0999 18.6096C32.1399 18.9496 32.6199 20.4296 31.1499 21.8896L28.6699 24.3696C28.2499 24.7896 28.0199 25.5996 28.1499 26.1796L28.8599 29.2496C29.4199 31.6796 28.1299 32.6196 25.9799 31.3496L22.9899 29.5796C22.4499 29.2596 21.5599 29.2596 21.0099 29.5796L18.0199 31.3496C15.8799 32.6196 14.5799 31.6696 15.1399 29.2496L15.8499 26.1796C15.9799 25.5996 15.7499 24.7896 15.3299 24.3696L12.8499 21.8896C11.3899 20.4296 11.8599 18.9496 13.8999 18.6096L17.0899 18.0796C17.6199 17.9896 18.2599 17.5196 18.4999 17.0296L20.2599 13.5096C21.2199 11.5996 22.7799 11.5996 23.7299 13.5096Z" stroke="#383635" stroke-width="1.5" stroke-linecap="round" stroke-linejoin="round"/>
</svg>
