<svg width="20" height="20" viewBox="0 0 20 20" fill="none" xmlns="http://www.w3.org/2000/svg">
<path d="M10.2812 9.67641V9.88351L10.4277 10.03L13.2718 12.8741C13.3817 12.9839 13.3816 13.162 13.2718 13.2718L13.2718 13.2718C13.162 13.3816 12.9839 13.3816 12.8741 13.2718L9.80113 10.1989L9.80108 10.1988C9.7484 10.1461 9.71875 10.0746 9.71875 10V5.39062C9.71875 5.23528 9.84466 5.10938 10 5.10938C10.1553 5.10938 10.2812 5.23528 10.2812 5.39062V9.67641ZM1.88473 1.69836V2.79579L2.71283 2.07565C3.9113 1.03343 5.40835 0.5 6.92707 0.5H13.0729C16.6164 0.5 19.5 3.3836 19.5 6.92707V13.0729C19.5 16.6164 16.6164 19.5 13.0729 19.5H6.92707C3.3836 19.5 0.5 16.6164 0.5 13.0729V10C0.5 9.84466 0.625908 9.71875 0.78125 9.71875C0.936592 9.71875 1.0625 9.84466 1.0625 10V13.0729C1.0625 16.3071 3.69288 18.9375 6.92707 18.9375H13.0729C16.3071 18.9375 18.9375 16.3071 18.9375 13.0729V6.92707C18.9375 3.69288 16.3071 1.0625 13.0729 1.0625H6.92707C5.3898 1.0625 3.9314 1.67187 2.85152 2.71297L1.95954 3.57293H3.19855H4.67641C4.83175 3.57293 4.95766 3.69884 4.95766 3.85418C4.95766 4.00952 4.83175 4.13543 4.67641 4.13543H1.60348C1.44989 4.13543 1.32223 4.00827 1.32223 3.85418V0.78125C1.32223 0.625908 1.44813 0.5 1.60348 0.5C1.75882 0.5 1.88473 0.625908 1.88473 0.78125V1.69836Z" fill="#383635" stroke="#383635"/>
</svg>
