<svg width="22" height="20" viewBox="0 0 22 20" fill="none" xmlns="http://www.w3.org/2000/svg">
<path d="M2.51457 2.82226L2.51463 2.8222C3.58546 1.75118 5.0217 1.12474 6.53518 1.06858C8.04865 1.01243 9.52738 1.53071 10.6746 2.51943L11.0009 2.80063L11.3273 2.51955C12.4735 1.53248 13.9503 1.01478 15.462 1.0701C16.9736 1.12542 18.4086 1.74968 19.4796 2.8179C20.5506 3.88612 21.1787 5.31945 21.2379 6.83096C21.297 8.3363 20.7876 9.80853 19.8113 10.9553L12.0604 18.7312C12.0604 18.7313 12.0603 18.7313 12.0602 18.7314C11.7927 18.9989 11.4339 19.1555 11.0558 19.1697C10.6801 19.1837 10.3129 19.0562 10.0269 18.8125L9.93139 18.7249L2.18875 10.9553C1.213 9.80951 0.703337 8.33862 0.761287 6.8343C0.819474 5.32385 1.44563 3.89101 2.51457 2.82226ZM3.23104 3.51982L3.23092 3.51969L3.22144 3.52917C2.31282 4.43805 1.78905 5.66189 1.75885 6.94669C1.72864 8.2315 2.19431 9.4786 3.05922 10.4292L3.05914 10.4292L3.06619 10.4367L3.21219 10.5907L3.21206 10.5908L3.22149 10.6002L10.6465 18.0252L11.0001 18.3789L11.3537 18.0252L16.6567 12.7202L17.0101 12.3666L16.6565 12.0131L13.1215 8.47907L12.768 8.12562L12.4145 8.47912L11.3545 9.53912L11.3544 9.53921C10.8856 10.0082 10.2497 10.2718 9.58663 10.2719C8.92352 10.2721 8.28751 10.0088 7.81851 9.54004C7.34951 9.07126 7.08594 8.43537 7.08579 7.77227C7.08563 7.10916 7.3489 6.47315 7.81768 6.00415L9.91968 3.90115L10.3149 3.50574L9.87801 3.15694C8.94862 2.41492 7.78518 2.02846 6.59654 2.06695C5.40789 2.10544 4.27189 2.56635 3.39245 3.36694L3.39238 3.36686L3.38504 3.37382L3.23104 3.51982ZM17.3635 11.3062L17.7165 11.6593L18.0701 11.3067L18.7781 10.6007L18.7785 10.6004C19.7023 9.67717 20.2283 8.42915 20.2438 7.1232C20.2594 5.81725 19.7634 4.55704 18.8618 3.61208C17.9603 2.66712 16.7248 2.11243 15.4195 2.06664C14.1143 2.02084 12.8429 2.48757 11.8774 3.36702L11.8773 3.36692L11.8689 3.37494L11.7159 3.52094L11.7158 3.52085L11.7075 3.52912L8.52561 6.71101C8.52557 6.71104 8.52553 6.71108 8.52549 6.71112C8.26557 6.97093 8.11006 7.31712 8.0885 7.684C8.06693 8.05093 8.18084 8.41301 8.40861 8.7015L8.41831 8.71379L8.42876 8.72545L8.50676 8.81245L8.5158 8.82253L8.52537 8.83211C8.7852 9.09211 9.13144 9.24765 9.49837 9.26922C9.8653 9.29079 10.2274 9.17688 10.5159 8.94911L10.5282 8.93941L10.5398 8.92896L10.6268 8.85096L10.637 8.84186L10.6466 8.83223L12.4145 7.06428C12.4146 7.06427 12.4146 7.06425 12.4146 7.06423C12.5084 6.97053 12.6355 6.91789 12.768 6.91789C12.9006 6.91789 13.0277 6.97053 13.1215 7.06423C13.1215 7.06425 13.1215 7.06427 13.1215 7.06428L17.3635 11.3062Z" fill="#383635" stroke="#383635"/>
</svg>
