<svg width="24" height="24" viewBox="0 0 24 24" fill="none" xmlns="http://www.w3.org/2000/svg">
<path d="M20.6 20.4004L3.15 12.9204C2.96961 12.8435 2.81579 12.7154 2.70768 12.5518C2.59956 12.3882 2.54192 12.1965 2.54192 12.0004C2.54192 11.8043 2.59956 11.6126 2.70768 11.449C2.81579 11.2854 2.96961 11.1572 3.15 11.0804L20.6 3.60039C20.7511 3.53449 20.9162 3.50723 21.0805 3.52109C21.2448 3.53495 21.403 3.58949 21.5409 3.67978C21.6788 3.77008 21.7921 3.89328 21.8705 4.03829C21.9489 4.1833 21.99 4.34555 21.99 4.51039L22 9.12039C22 9.62039 21.63 10.0504 21.13 10.1104L7 12.0004L21.13 13.8804C21.63 13.9504 22 14.3804 22 14.8804L21.99 19.4904C21.99 20.2004 21.26 20.6904 20.6 20.4004Z" fill="#676564"/>
</svg>
