<svg width="24" height="24" viewBox="0 0 24 24" fill="none" xmlns="http://www.w3.org/2000/svg">
<path d="M21.68 16.9596L18.55 9.64964C17.49 7.16964 15.54 7.06964 14.23 9.42964L12.34 12.8396C11.38 14.5696 9.58999 14.7196 8.34999 13.1696L8.12999 12.8896C6.83999 11.2696 5.01999 11.4696 4.08999 13.3196L2.36999 16.7696C1.15999 19.1696 2.90999 21.9996 5.58999 21.9996H18.35C20.95 21.9996 22.7 19.3496 21.68 16.9596Z" stroke="#383635" stroke-width="1.5" stroke-linecap="round" stroke-linejoin="round"/>
<path d="M6.96997 8C8.62682 8 9.96997 6.65685 9.96997 5C9.96997 3.34315 8.62682 2 6.96997 2C5.31312 2 3.96997 3.34315 3.96997 5C3.96997 6.65685 5.31312 8 6.96997 8Z" stroke="#383635" stroke-width="1.5" stroke-linecap="round" stroke-linejoin="round"/>
</svg>
