<svg width="44" height="44" viewBox="0 0 44 44" fill="none" xmlns="http://www.w3.org/2000/svg">
<path d="M26.9768 21.8651L26.9866 21.9104L27.0249 21.8843C27.4229 21.6131 27.8935 21.4683 28.3751 21.4688H28.3751C28.6912 21.4686 29.0042 21.5308 29.2963 21.6516C29.5883 21.7725 29.8537 21.9497 30.0772 22.1732C30.3008 22.3967 30.4781 22.662 30.5991 22.954C30.72 23.246 30.7823 23.5589 30.7823 23.875V27.25C30.7823 29.5993 30.0081 31.1741 29.9766 31.2373L29.9765 31.2373C29.9324 31.3258 29.8644 31.4002 29.7802 31.4521C29.6961 31.504 29.5992 31.5314 29.5004 31.5312C29.4177 31.5306 29.3365 31.51 29.2636 31.4712L29.2629 31.4708C29.1379 31.4079 29.0428 31.2983 28.9982 31.1656C28.9536 31.033 28.9632 30.8881 29.0247 30.7625C29.0372 30.7372 29.7189 29.324 29.7189 27.25V23.875C29.7189 23.5186 29.5773 23.1768 29.3253 22.9248C29.0733 22.6728 28.7315 22.5312 28.3751 22.5312C28.0187 22.5312 27.677 22.6728 27.425 22.9248C27.1729 23.1768 27.0314 23.5186 27.0314 23.875V24.25C27.0314 24.3909 26.9754 24.526 26.8758 24.6257C26.7761 24.7253 26.641 24.7812 26.5001 24.7812C26.3592 24.7812 26.2241 24.7253 26.1245 24.6257C26.0248 24.526 25.9689 24.3909 25.9689 24.25V22.375C25.9689 22.0186 25.8273 21.6768 25.5753 21.4248C25.3233 21.1728 24.9815 21.0312 24.6251 21.0312C24.2687 21.0312 23.927 21.1728 23.675 21.4248C23.4229 21.6768 23.2814 22.0186 23.2814 22.375V23.5C23.2814 23.6409 23.2254 23.776 23.1258 23.8757C23.0261 23.9753 22.891 24.0312 22.7501 24.0312C22.6092 24.0312 22.4741 23.9753 22.3745 23.8757C22.2748 23.776 22.2189 23.6409 22.2189 23.5V17.125C22.2189 16.7686 22.0773 16.4268 21.8253 16.1748C21.5733 15.9228 21.2315 15.7812 20.8751 15.7812C20.5187 15.7812 20.177 15.9228 19.925 16.1748C19.6729 16.4268 19.5314 16.7686 19.5314 17.125V27.25V27.25C19.5316 27.3656 19.494 27.4781 19.4245 27.5705C19.3549 27.6628 19.2572 27.73 19.146 27.7617C19.0349 27.7934 18.9164 27.7881 18.8086 27.7464C18.7007 27.7047 18.6095 27.629 18.5486 27.5307L18.5485 27.5307L16.7973 24.7182L16.7974 24.7181L16.796 24.7163C16.7936 24.7129 16.7915 24.7094 16.7897 24.7056L16.7899 24.7056L16.7884 24.7031C16.6102 24.3945 16.3167 24.1692 15.9725 24.077C15.6282 23.9847 15.2614 24.033 14.9528 24.2112C14.6441 24.3894 14.4189 24.6829 14.3267 25.0272C14.2344 25.3714 14.2827 25.7382 14.4609 26.0469L14.461 26.047L17.2065 30.7337C17.2065 30.7339 17.2066 30.734 17.2067 30.7341C17.2729 30.8555 17.2891 30.998 17.252 31.1312C17.2148 31.2645 17.127 31.3781 17.0073 31.4477C16.8876 31.5173 16.7455 31.5374 16.6112 31.5038C16.477 31.4702 16.3612 31.3856 16.2885 31.268C16.2884 31.2679 16.2883 31.2677 16.2883 31.2676L13.54 26.5809C13.54 26.5809 13.5399 26.5808 13.5399 26.5808C13.2193 26.0286 13.1311 25.3715 13.2949 24.7543C13.4586 24.137 13.8609 23.6101 14.4132 23.2894C14.9654 22.9687 15.6225 22.8805 16.2398 23.0443C16.857 23.208 17.384 23.6103 17.7047 24.1626L17.7047 24.1626L17.7052 24.1634L18.4111 25.2978L18.4689 25.3906V25.2812V17.125C18.4689 16.4868 18.7224 15.8748 19.1737 15.4235C19.6249 14.9723 20.2369 14.7188 20.8751 14.7188C21.5133 14.7188 22.1253 14.9723 22.5766 15.4235C23.0279 15.8748 23.2814 16.4868 23.2814 17.125V20.3219V20.3789L23.3295 20.3482C23.6564 20.1392 24.029 20.0124 24.4155 19.9786C24.8021 19.9448 25.1911 20.0049 25.5493 20.1539C25.9076 20.3029 26.2245 20.5364 26.4731 20.8343C26.7216 21.1323 26.8944 21.4859 26.9768 21.8651ZM15.4689 17.125C15.4689 15.6912 16.0385 14.3161 17.0523 13.3022C18.0662 12.2883 19.4413 11.7188 20.8751 11.7188C22.309 11.7188 23.6841 12.2883 24.6979 13.3022C25.7118 14.3161 26.2814 15.6912 26.2814 17.125C26.2814 17.2659 26.2254 17.401 26.1258 17.5006C26.0261 17.6003 25.891 17.6562 25.7501 17.6562C25.6092 17.6562 25.4741 17.6003 25.3745 17.5006C25.2748 17.401 25.2189 17.2659 25.2189 17.125C25.2189 15.973 24.7612 14.8681 23.9466 14.0535C23.132 13.2389 22.0272 12.7812 20.8751 12.7812C19.7231 12.7812 18.6182 13.2389 17.8036 14.0535C16.989 14.8681 16.5314 15.973 16.5314 17.125C16.5314 17.2659 16.4754 17.401 16.3758 17.5006C16.2761 17.6003 16.141 17.6562 16.0001 17.6562C15.8592 17.6562 15.7241 17.6003 15.6245 17.5006C15.5248 17.401 15.4689 17.2659 15.4689 17.125Z" fill="#383635" stroke="#383635" stroke-width="0.0625"/>
</svg>
