<svg width="24" height="24" viewBox="0 0 24 24" fill="none" xmlns="http://www.w3.org/2000/svg">
<path d="M13 15.0003V7.00031M13 15.0003L18.504 18.1453C18.6561 18.2322 18.8283 18.2776 19.0034 18.277C19.1785 18.2764 19.3504 18.2298 19.5019 18.1419C19.6533 18.0541 19.7791 17.9279 19.8665 17.7762C19.9539 17.6245 19.9999 17.4524 20 17.2773V4.72331C19.9999 4.54819 19.9539 4.37616 19.8665 4.22442C19.7791 4.07269 19.6533 3.94657 19.5019 3.85868C19.3504 3.7708 19.1785 3.72423 19.0034 3.72364C18.8283 3.72305 18.6561 3.76845 18.504 3.85531L13 7.00031M13 15.0003H10M13 7.00031H7C5.93913 7.00031 4.92172 7.42174 4.17157 8.17188C3.42143 8.92203 3 9.93944 3 11.0003C3 12.0612 3.42143 13.0786 4.17157 13.8287C4.92172 14.5789 5.93913 15.0003 7 15.0003M10 15.0003V19.5003C10 19.8981 9.84196 20.2797 9.56066 20.561C9.27936 20.8423 8.89782 21.0003 8.5 21.0003C8.10218 21.0003 7.72064 20.8423 7.43934 20.561C7.15804 20.2797 7 19.8981 7 19.5003V15.0003M10 15.0003H7" stroke="#383635" stroke-width="2" stroke-linecap="round" stroke-linejoin="round"/>
</svg>
