<svg width="32" height="32" viewBox="0 0 32 32" fill="none" xmlns="http://www.w3.org/2000/svg">
<path d="M22.6665 24.5736H17.3332L11.3998 28.5203C10.5198 29.1069 9.33317 28.4803 9.33317 27.4137V24.5736C5.33317 24.5736 2.6665 21.907 2.6665 17.907V9.9069C2.6665 5.9069 5.33317 3.24023 9.33317 3.24023H22.6665C26.6665 3.24023 29.3332 5.9069 29.3332 9.9069V17.907C29.3332 21.907 26.6665 24.5736 22.6665 24.5736Z" stroke="#383635" stroke-width="1.5" stroke-miterlimit="10" stroke-linecap="round" stroke-linejoin="round"/>
<path d="M15.9999 15.1465V14.8665C15.9999 13.9599 16.56 13.4798 17.12 13.0932C17.6666 12.7198 18.2132 12.2399 18.2132 11.3599C18.2132 10.1332 17.2266 9.14648 15.9999 9.14648C14.7733 9.14648 13.7866 10.1332 13.7866 11.3599" stroke="#151211" stroke-width="1.5" stroke-linecap="round" stroke-linejoin="round"/>
<path d="M15.9942 18.3337H16.0062" stroke="#343434" stroke-width="1.5" stroke-linecap="round" stroke-linejoin="round"/>
</svg>
