<svg width="24" height="24" viewBox="0 0 24 24" fill="none" xmlns="http://www.w3.org/2000/svg">
<path d="M19.4 12C19.96 12 20.24 12 20.454 11.891C20.6422 11.7951 20.7951 11.6422 20.891 11.454C21 11.24 21 10.96 21 10.4V8.2C21 7.64 21 7.36 20.891 7.146C20.7951 6.95785 20.6422 6.80487 20.454 6.709C20.24 6.6 19.96 6.6 19.4 6.6H17.85C17.6113 6.6 17.3824 6.50518 17.2136 6.3364C17.0448 6.16761 16.95 5.93869 16.95 5.7C16.95 4.98392 16.6655 4.29716 16.1592 3.79081C15.6528 3.28446 14.9661 3 14.25 3C13.5339 3 12.8472 3.28446 12.3408 3.79081C11.8345 4.29716 11.55 4.98392 11.55 5.7C11.55 5.93869 11.4552 6.16761 11.2864 6.3364C11.1176 6.50518 10.8887 6.6 10.65 6.6H9.1C8.54 6.6 8.26 6.6 8.046 6.709C7.85785 6.80487 7.70487 6.95785 7.609 7.146C7.5 7.36 7.5 7.64 7.5 8.2V10.4C7.5 10.96 7.5 11.24 7.391 11.454C7.29513 11.6422 7.14215 11.7951 6.954 11.891C6.74 12 6.46 12 5.9 12H5.7C5.34543 12 4.99433 12.0698 4.66675 12.2055C4.33918 12.3412 4.04153 12.5401 3.79081 12.7908C3.54009 13.0415 3.34121 13.3392 3.20553 13.6668C3.06984 13.9943 3 14.3454 3 14.7C3 15.0546 3.06984 15.4057 3.20553 15.7332C3.34121 16.0608 3.54009 16.3585 3.79081 16.6092C4.04153 16.8599 4.33918 17.0588 4.66675 17.1945C4.99433 17.3302 5.34543 17.4 5.7 17.4H5.9C6.46 17.4 6.74 17.4 6.954 17.509C7.14215 17.6049 7.29513 17.7578 7.391 17.946C7.5 18.16 7.5 18.44 7.5 19V19.4C7.5 19.96 7.5 20.24 7.609 20.454C7.70487 20.6422 7.85785 20.7951 8.046 20.891C8.26 21 8.54 21 9.1 21H19.4C19.96 21 20.24 21 20.454 20.891C20.6422 20.7951 20.7951 20.6422 20.891 20.454C21 20.24 21 19.96 21 19.4V19C21 18.44 21 18.16 20.891 17.946C20.7951 17.7578 20.6422 17.6049 20.454 17.509C20.24 17.4 19.96 17.4 19.4 17.4H19.2C18.4839 17.4 17.7972 17.1155 17.2908 16.6092C16.7845 16.1028 16.5 15.4161 16.5 14.7C16.5 13.9839 16.7845 13.2972 17.2908 12.7908C17.7972 12.2845 18.4839 12 19.2 12H19.4Z" stroke="#383635" stroke-width="1.5" stroke-linecap="round" stroke-linejoin="round"/>
</svg>
