<svg width="44" height="44" viewBox="0 0 44 44" fill="none" xmlns="http://www.w3.org/2000/svg">
<path d="M31.9301 16.76L28.5601 30.29C28.3201 31.3 27.4201 32 26.3801 32H13.2401C11.7301 32 10.6501 30.5199 11.1001 29.0699L15.3101 15.55C15.6001 14.61 16.4702 13.96 17.4502 13.96H29.7501C30.7001 13.96 31.4901 14.54 31.8201 15.34C32.0101 15.77 32.0501 16.26 31.9301 16.76Z" stroke="#383635" stroke-width="1.5" stroke-miterlimit="10"/>
<path d="M26 32H30.78C32.07 32 33.08 30.91 32.99 29.62L32 16" stroke="#383635" stroke-width="1.5" stroke-miterlimit="10" stroke-linecap="round" stroke-linejoin="round"/>
<path d="M19.6802 16.3805L20.7202 12.0605" stroke="#383635" stroke-width="1.5" stroke-miterlimit="10" stroke-linecap="round" stroke-linejoin="round"/>
<path d="M26.3799 16.3898L27.3199 12.0498" stroke="#383635" stroke-width="1.5" stroke-miterlimit="10" stroke-linecap="round" stroke-linejoin="round"/>
<path d="M17.7002 22H25.7002" stroke="#383635" stroke-width="1.5" stroke-miterlimit="10" stroke-linecap="round" stroke-linejoin="round"/>
<path d="M16.7002 26H24.7002" stroke="#383635" stroke-width="1.5" stroke-miterlimit="10" stroke-linecap="round" stroke-linejoin="round"/>
</svg>
