<svg width="32" height="32" viewBox="0 0 32 32" fill="none" xmlns="http://www.w3.org/2000/svg">
<path d="M26.9199 18.7467L25.4133 16.2401C25.0799 15.6934 24.7866 14.6401 24.7866 14.0001V11.5067C24.7866 6.66673 20.8533 2.7334 16.0266 2.7334C11.1866 2.74673 7.25328 6.66673 7.25328 11.5067V13.9867C7.25328 14.6267 6.95994 15.6801 6.63995 16.2267L5.13328 18.7334C4.55994 19.7067 4.42661 20.8134 4.78661 21.7734C5.14661 22.7467 5.95994 23.5201 7.02661 23.8667C8.46661 24.3467 9.91995 24.6934 11.3999 24.9467C11.5466 24.9734 11.6933 24.9867 11.8399 25.0134C12.0266 25.0401 12.2266 25.0667 12.4266 25.0934C12.7733 25.1467 13.1199 25.1867 13.4799 25.2134C14.3199 25.2934 15.1733 25.3334 16.0266 25.3334C16.8666 25.3334 17.7066 25.2934 18.5333 25.2134C18.8399 25.1867 19.1466 25.1601 19.4399 25.1201C19.6799 25.0934 19.9199 25.0667 20.1599 25.0267C20.3066 25.0134 20.4533 24.9867 20.5999 24.9601C22.0933 24.7201 23.5733 24.3467 25.0133 23.8667C26.0399 23.5201 26.8266 22.7467 27.1999 21.7601C27.5733 20.7601 27.4666 19.6667 26.9199 18.7467ZM16.9999 13.3334C16.9999 13.8934 16.5466 14.3467 15.9866 14.3467C15.4266 14.3467 14.9733 13.8934 14.9733 13.3334V9.20007C14.9733 8.64007 15.4266 8.18673 15.9866 8.18673C16.5466 8.18673 16.9999 8.64007 16.9999 9.20007V13.3334Z" fill="#292D32"/>
<path d="M19.7736 26.6803C19.2136 28.227 17.7336 29.3337 16.0002 29.3337C14.9469 29.3337 13.9069 28.907 13.1736 28.147C12.7469 27.747 12.4269 27.2137 12.2402 26.667C12.4136 26.6937 12.5869 26.707 12.7736 26.7337C13.0802 26.7737 13.4002 26.8137 13.7202 26.8403C14.4802 26.907 15.2536 26.947 16.0269 26.947C16.7869 26.947 17.5469 26.907 18.2936 26.8403C18.5736 26.8137 18.8536 26.8003 19.1202 26.7603C19.3336 26.7337 19.5469 26.707 19.7736 26.6803Z" fill="#151211"/>
</svg>
