<svg width="16" height="16" viewBox="0 0 16 16" fill="none" xmlns="http://www.w3.org/2000/svg">
<path d="M2.05001 3.96582C2.05001 3.96582 1.24376 4.02957 1.13626 4.21082C1.02751 4.39207 1.02126 4.67082 1.02126 4.97707C1.02126 5.28457 1.00876 5.98957 1.00876 5.98957L1.20126 6.40332C1.20126 6.40332 1.23751 11.6771 1.23751 11.8408C1.23751 12.0033 1.23751 12.2021 1.47251 12.3283C1.70751 12.4546 7.68001 15.3396 7.86626 15.4171C8.14751 15.5333 8.28126 15.4896 8.28126 15.4896L14.9175 4.39082C14.9175 4.39082 14.8963 4.08707 14.62 4.01457C14.4613 3.97457 2.05001 3.96582 2.05001 3.96582Z" fill="#F5B03E"/>
<path d="M8.21001 7.61466C8.10876 7.89341 8.15501 10.7759 8.17251 12.8722C8.19001 14.9672 8.11876 15.4009 8.17251 15.4734C8.22626 15.5459 8.37251 15.4759 8.78626 15.2922C9.55501 14.9522 13.2475 13.1247 13.5188 12.9622C13.79 12.7997 14.4525 12.4634 14.5613 12.2822C14.67 12.1009 14.7288 10.4147 14.765 9.06091C14.8013 7.70591 14.8375 6.62216 14.8375 6.62216L15 6.13466C15 6.13466 14.965 4.81716 14.9588 4.67216C14.9475 4.43216 14.9213 4.30841 14.86 4.33841C14.7725 4.37966 14.0425 4.97841 12.11 5.91841C10.8963 6.50716 8.28001 7.42216 8.21001 7.61466Z" fill="#E07F14"/>
<path d="M8.2275 1.40093C7.68625 1.37593 6.205 2.23218 4.7775 2.70093C3.35 3.16968 1.195 4.11218 1.17625 4.16718C1.15875 4.22093 2.04375 4.61718 2.60875 4.88843C3.28 5.20968 5.8425 6.42343 6.31125 6.62218C6.78125 6.82093 7.90125 7.28593 8.08125 7.27218C8.33375 7.25468 10.7188 6.31468 11.9288 5.73718C13.1388 5.15968 14.6513 4.26468 14.6713 4.04718C14.68 3.94968 12.4463 3.11593 11.3325 2.61218C9.1825 1.63843 8.62375 1.41968 8.2275 1.40093Z" fill="#FDD717"/>
<path d="M1.015 6.22105C1.03375 6.45605 1.1625 6.5398 1.49 6.6823C1.8175 6.8248 8.00875 10.0411 8.15125 10.0411C8.29375 10.0411 8.33626 9.53105 8.18001 9.5448C8.09501 9.5523 6.06125 8.58605 4.16125 7.62105C2.54875 6.80355 1.005 5.9873 1.005 5.9873L1.015 6.22105Z" fill="#E37D14"/>
<path d="M15.0012 6.12402C15.0012 6.12402 8.39 9.48652 8.325 9.51902C8.26 9.55152 8.15625 9.54027 8.15625 9.54027L8.15125 10.0415C8.15125 10.0415 8.2125 10.0553 8.28125 10.034C8.32125 10.0215 14.81 6.66277 14.8387 6.65277C14.8675 6.64277 14.9925 6.56777 15.0187 6.40902C15.0412 6.28152 15.0012 6.12402 15.0012 6.12402Z" fill="#BA5E0D"/>
<path d="M3.60749 12.1776L4.90124 14.1026L5.46749 14.2963C5.46749 14.2963 5.51374 12.1963 5.53249 10.6401C5.55874 8.36633 5.54874 6.29258 5.58124 6.17508C5.63499 5.97633 8.15124 5.16008 8.15124 5.16008C8.15124 5.16008 10.9937 6.05133 11.0837 6.25008C11.1237 6.33758 11.0925 7.81008 11.0837 9.52633C11.0725 11.6938 11.0762 14.1963 11.0762 14.1963C11.0762 14.1963 11.37 14.1951 11.405 14.0863C11.4412 13.9776 11.5862 13.1388 11.5862 13.1388L12.6887 5.79008L13.2487 5.06758L12.4712 3.58758L9.28124 2.01758L8.18499 2.26383L6.99874 2.08258L3.23624 4.78633L3.67499 5.67633L4.75124 6.22508L3.60749 12.1776Z" fill="#AF0F1B"/>
<path d="M11.41 6.17379C11.3413 6.32504 11.3813 14.1188 11.3813 14.1188C11.3813 14.1188 11.725 13.9288 12.1675 13.7163C12.6075 13.505 12.9238 13.3738 12.9513 13.2638C12.9788 13.1538 13.0275 5.44629 13.0275 5.44629L11.41 6.17379Z" fill="#DC0D28"/>
<path d="M5.16874 6.0125C5.20999 6.0575 5.14249 14.145 5.05874 14.1637C4.99249 14.18 3.48624 13.5075 3.48624 13.4388C3.48624 13.37 3.60749 5.64125 3.60749 5.64125C3.60749 5.64125 5.04624 5.875 5.16874 6.0125ZM8.15374 1.78125C7.73749 1.78125 7.27749 1.9 7.14374 2.24875C7.00999 2.5975 6.97999 3.11625 6.97999 3.50375C6.97999 3.875 6.91999 4.825 8.06374 4.81C9.20749 4.795 9.24124 4.37125 9.25874 3.43625C9.27374 2.65625 9.16999 2.2775 9.06624 2.115C8.97374 1.96875 8.66624 1.78125 8.15374 1.78125Z" fill="#FF2A23"/>
<path d="M7.49251 3.71084C7.75251 3.72584 7.86376 3.15459 8.06376 2.84209C8.26376 2.53084 8.47251 2.32209 8.39751 2.15959C8.33626 2.02459 7.79251 1.98084 7.49876 2.38959C7.29251 2.67834 7.25626 3.69709 7.49251 3.71084Z" fill="#FCC9D2"/>
<path d="M9.16626 2.05203C9.16626 2.05203 9.53501 2.42703 9.63126 3.16203C9.72751 3.89703 9.61626 4.46828 9.61626 4.46828C9.61626 4.46828 11.4488 4.41328 12.0813 4.53452C12.705 4.65578 12.9225 4.93078 12.9225 5.13077C12.9225 5.33077 12.5125 5.49203 12.0963 5.46203C11.68 5.43202 11.3988 5.40952 11.3463 5.51452C11.2938 5.61952 11.3688 5.78203 11.9475 5.82578C12.5263 5.87078 13.195 5.78827 13.4025 5.06827C13.61 4.34827 13.6175 3.10078 13.5438 2.20203C13.47 1.30328 13.3075 0.789525 12.905 0.594525C12.4813 0.390775 11.42 0.357025 10.4175 0.920775C9.41501 1.48453 9.16626 2.05203 9.16626 2.05203Z" fill="#FF2A23"/>
<path d="M11.2425 1.19798C11.1125 1.03048 10.6938 1.03548 10.47 1.29423C10.2325 1.56923 10.18 2.61548 10.485 2.67548C10.83 2.74298 10.7675 2.17798 11.02 1.82923C11.2675 1.48798 11.3688 1.36173 11.2425 1.19798Z" fill="#FCC9D2"/>
<path d="M7.04749 2.08907C7.04749 2.08907 5.64374 0.452823 4.03999 0.477823C3.07499 0.492823 2.82999 1.04907 2.77749 1.27907C2.72499 1.50907 2.32499 3.79657 2.85874 5.03532C3.39249 6.27407 4.49999 5.95282 4.67374 5.91282C4.89624 5.86032 5.36999 5.69782 5.32499 5.52657C5.27999 5.35532 3.70624 5.97157 3.69124 5.26657C3.67624 4.56157 4.80499 4.48657 5.32499 4.47157C5.84499 4.45657 6.73624 4.57532 6.73624 4.57532C6.73624 4.57532 6.57999 3.72157 6.68374 3.11282C6.78749 2.50407 7.04749 2.08907 7.04749 2.08907Z" fill="#FF2A23"/>
<path d="M3.61001 1.07105C3.41001 1.27855 3.32751 2.4748 3.45376 3.06855C3.58001 3.6623 3.69126 3.9148 3.95126 3.86355C4.16876 3.8198 4.30001 2.6548 4.40376 2.2448C4.51501 1.8073 4.79001 1.3423 4.67876 1.13855C4.50876 0.826048 3.81876 0.854798 3.61001 1.07105Z" fill="#FCC9D2"/>
</svg>
