<svg width="24" height="24" viewBox="0 0 24 24" fill="none" xmlns="http://www.w3.org/2000/svg">
<path d="M16.9767 11.8651L16.9865 11.9104L17.0248 11.8843C17.4228 11.6131 17.8934 11.4683 18.375 11.4688H18.375C18.6911 11.4686 19.0041 11.5308 19.2961 11.6516C19.5882 11.7725 19.8535 11.9497 20.0771 12.1732C20.3006 12.3967 20.478 12.662 20.5989 12.954C20.7199 13.246 20.7822 13.5589 20.7822 13.875V17.25C20.7822 19.5993 20.008 21.1741 19.9764 21.2373L19.9764 21.2373C19.9322 21.3258 19.8643 21.4002 19.7801 21.4521C19.696 21.504 19.5991 21.5314 19.5002 21.5312C19.4176 21.5306 19.3364 21.51 19.2634 21.4712L19.2628 21.4708C19.1378 21.4079 19.0427 21.2983 18.9981 21.1656C18.9535 21.033 18.963 20.8881 19.0246 20.7625C19.0371 20.7372 19.7188 19.324 19.7188 17.25V13.875C19.7188 13.5186 19.5772 13.1768 19.3252 12.9248C19.0732 12.6728 18.7314 12.5312 18.375 12.5312C18.0186 12.5312 17.6768 12.6728 17.4248 12.9248C17.1728 13.1768 17.0313 13.5186 17.0313 13.875V14.25C17.0313 14.3909 16.9753 14.526 16.8757 14.6257C16.776 14.7253 16.6409 14.7812 16.5 14.7812C16.3591 14.7812 16.224 14.7253 16.1244 14.6257C16.0247 14.526 15.9688 14.3909 15.9688 14.25V12.375C15.9688 12.0186 15.8272 11.6768 15.5752 11.4248C15.3232 11.1728 14.9814 11.0312 14.625 11.0312C14.2686 11.0312 13.9268 11.1728 13.6748 11.4248C13.4228 11.6768 13.2813 12.0186 13.2813 12.375V13.5C13.2813 13.6409 13.2253 13.776 13.1257 13.8757C13.026 13.9753 12.8909 14.0312 12.75 14.0312C12.6091 14.0312 12.474 13.9753 12.3744 13.8757C12.2747 13.776 12.2188 13.6409 12.2188 13.5V7.125C12.2188 6.76862 12.0772 6.42683 11.8252 6.17483C11.5732 5.92282 11.2314 5.78125 10.875 5.78125C10.5186 5.78125 10.1768 5.92282 9.92483 6.17483C9.67283 6.42683 9.53125 6.76862 9.53125 7.125V17.25V17.25C9.53143 17.3656 9.4939 17.4781 9.42436 17.5705C9.35481 17.6628 9.25704 17.73 9.14589 17.7617C9.03474 17.7934 8.91626 17.7881 8.80844 17.7464C8.70062 17.7047 8.60934 17.629 8.54844 17.5307L8.54841 17.5307L6.79716 14.7182L6.79723 14.7181L6.79587 14.7163C6.79344 14.7129 6.79135 14.7094 6.78962 14.7056L6.78974 14.7056L6.78832 14.7031C6.61013 14.3945 6.31662 14.1692 5.97237 14.077C5.62811 13.9847 5.26132 14.033 4.95266 14.2112C4.64401 14.3894 4.41878 14.6829 4.32653 15.0272C4.23428 15.3714 4.28256 15.7382 4.46075 16.0469L4.46085 16.047L7.20633 20.7337C7.2064 20.7339 7.20647 20.734 7.20654 20.7341C7.27274 20.8555 7.289 20.998 7.25184 21.1312C7.21464 21.2645 7.12686 21.3781 7.00718 21.4477C6.88749 21.5173 6.74537 21.5374 6.61107 21.5038C6.4769 21.4702 6.36112 21.3856 6.28835 21.268C6.28828 21.2679 6.28822 21.2677 6.28815 21.2676L3.53984 16.5809C3.53983 16.5809 3.53982 16.5808 3.53981 16.5808C3.21915 16.0286 3.131 15.3715 3.29475 14.7543C3.4585 14.137 3.86077 13.6101 4.41304 13.2894C4.96531 12.9687 5.62236 12.8805 6.23964 13.0443C6.85691 13.208 7.38386 13.6103 7.70454 14.1626L7.70453 14.1626L7.70504 14.1634L8.41097 15.2978L8.46875 15.3906V15.2812V7.125C8.46875 6.48682 8.72227 5.87478 9.17353 5.42352C9.62479 4.97227 10.2368 4.71875 10.875 4.71875C11.5132 4.71875 12.1252 4.97227 12.5765 5.42352C13.0277 5.87478 13.2813 6.48682 13.2813 7.125V10.3219V10.3789L13.3293 10.3482C13.6563 10.1392 14.0289 10.0124 14.4154 9.97862C14.802 9.94479 15.1909 10.0049 15.5492 10.1539C15.9075 10.3029 16.2244 10.5364 16.4729 10.8343C16.7215 11.1323 16.8943 11.4859 16.9767 11.8651ZM5.46875 7.125C5.46875 5.69117 6.03834 4.31607 7.05221 3.3022C8.06608 2.28834 9.44118 1.71875 10.875 1.71875C12.3088 1.71875 13.6839 2.28834 14.6978 3.3022C15.7117 4.31607 16.2813 5.69117 16.2813 7.125C16.2813 7.2659 16.2253 7.40102 16.1257 7.50065C16.026 7.60028 15.8909 7.65625 15.75 7.65625C15.6091 7.65625 15.474 7.60028 15.3744 7.50065C15.2747 7.40102 15.2188 7.2659 15.2188 7.125C15.2188 5.97297 14.7611 4.86812 13.9465 4.0535C13.1319 3.23889 12.027 2.78125 10.875 2.78125C9.72297 2.78125 8.61812 3.23889 7.80351 4.0535C6.9889 4.86812 6.53125 5.97297 6.53125 7.125C6.53125 7.2659 6.47528 7.40102 6.37565 7.50065C6.27603 7.60028 6.1409 7.65625 6 7.65625C5.85911 7.65625 5.72398 7.60028 5.62435 7.50065C5.52472 7.40102 5.46875 7.2659 5.46875 7.125Z" fill="#383635" stroke="#383635" stroke-width="0.0625"/>
</svg>
