<svg width="24" height="24" viewBox="0 0 24 24" fill="none" xmlns="http://www.w3.org/2000/svg">
<path d="M19.07 19.3201C19.0055 19.3201 18.9449 19.2979 18.8936 19.2466C18.7988 19.1518 18.7988 18.9884 18.8936 18.8937C22.6985 15.0888 22.6993 8.90198 18.8933 5.10632C18.7988 5.01154 18.7989 4.84833 18.8936 4.75367C18.9883 4.65893 19.1517 4.65893 19.2465 4.75367C23.2412 8.74841 23.2412 15.2518 19.2465 19.2466C19.1952 19.2979 19.1346 19.3201 19.07 19.3201Z" fill="#383635" stroke="#383635"/>
<path d="M4.93001 19.8201C4.74001 19.8201 4.55001 19.7501 4.40001 19.6001C0.210007 15.4101 0.210007 8.59012 4.40001 4.40012C4.69001 4.11012 5.17001 4.11012 5.46001 4.40012C5.75001 4.69012 5.75001 5.17012 5.46001 5.46012C1.85001 9.07012 1.85001 14.9401 5.46001 18.5401C5.75001 18.8301 5.75001 19.3101 5.46001 19.6001C5.31001 19.7501 5.12001 19.8201 4.93001 19.8201Z" fill="#383635"/>
<path d="M12 22.71C10.75 22.7 9.56 22.5 8.45 22.11C8.06 21.97 7.85 21.54 7.99 21.15C8.13 20.76 8.55 20.55 8.95 20.69C9.91 21.02 10.93 21.2 12.01 21.2C13.08 21.2 14.11 21.02 15.06 20.69C15.45 20.56 15.88 20.76 16.02 21.15C16.16 21.54 15.95 21.97 15.56 22.11C14.44 22.5 13.25 22.71 12 22.71Z" fill="#383635"/>
<path d="M15.3 3.34004C15.22 3.34004 15.13 3.33004 15.05 3.30004C14.1 2.96004 13.07 2.79004 12 2.79004C10.93 2.79004 9.91 2.97004 8.95 3.30004C8.55 3.43004 8.13 3.23004 7.99 2.84004C7.85 2.45004 8.06 2.02004 8.45 1.88004C9.57 1.49004 10.76 1.29004 12 1.29004C13.24 1.29004 14.44 1.49004 15.55 1.88004C15.94 2.02004 16.15 2.45004 16.01 2.84004C15.9 3.15004 15.61 3.34004 15.3 3.34004Z" fill="#383635"/>
<path d="M8.73999 12.0001V10.3301C8.73999 8.25014 10.21 7.40014 12.01 8.44014L13.46 9.28014L14.91 10.1201C16.71 11.1601 16.71 12.8601 14.91 13.9001L13.46 14.7401L12.01 15.5801C10.21 16.6201 8.73999 15.7701 8.73999 13.6901V12.0001Z" fill="#383635"/>
</svg>
