<svg width="44" height="44" viewBox="0 0 44 44" fill="none" xmlns="http://www.w3.org/2000/svg">
<path d="M32 21.5V25.5C32 29 30 30.5 27 30.5H17C14 30.5 12 29 12 25.5V18.5C12 15 14 13.5 17 13.5H22" stroke="#383635" stroke-width="1.5" stroke-miterlimit="10" stroke-linecap="round" stroke-linejoin="round"/>
<path d="M17 19L20.13 21.5C21.16 22.32 22.85 22.32 23.88 21.5" stroke="#383635" stroke-width="1.5" stroke-miterlimit="10" stroke-linecap="round" stroke-linejoin="round"/>
<path d="M29.4802 12.8204L29.7602 13.3904C29.9002 13.6704 30.2502 13.9304 30.5602 13.9904L30.9402 14.0504C32.0802 14.2404 32.3502 15.0804 31.5302 15.9104L31.1802 16.2604C30.9502 16.5004 30.8202 16.9604 30.8902 17.2804L30.9402 17.4904C31.2502 18.8704 30.5202 19.4004 29.3202 18.6804L29.0602 18.5304C28.7502 18.3504 28.2502 18.3504 27.9402 18.5304L27.6802 18.6804C26.4702 19.4104 25.7402 18.8704 26.0602 17.4904L26.1102 17.2804C26.1802 16.9604 26.0502 16.5004 25.8202 16.2604L25.4702 15.9104C24.6502 15.0804 24.9202 14.2404 26.0602 14.0504L26.4402 13.9904C26.7402 13.9404 27.1002 13.6704 27.2402 13.3904L27.5202 12.8204C28.0602 11.7304 28.9402 11.7304 29.4802 12.8204Z" stroke="#383635" stroke-width="1.5" stroke-linecap="round" stroke-linejoin="round"/>
<circle cx="10" cy="14" r="2" fill="#197BE6"/>
</svg>
