<svg width="44" height="44" viewBox="0 0 44 44" fill="none" xmlns="http://www.w3.org/2000/svg">
<path d="M22 22C24.7614 22 27 19.7614 27 17C27 14.2386 24.7614 12 22 12C19.2386 12 17 14.2386 17 17C17 19.7614 19.2386 22 22 22Z" stroke="#383635" stroke-width="1.5" stroke-linecap="round" stroke-linejoin="round"/>
<path d="M13.4102 32C13.4102 28.13 17.2602 25 22.0002 25" stroke="#383635" stroke-width="1.5" stroke-linecap="round" stroke-linejoin="round"/>
<path d="M28.2 31.4C29.9673 31.4 31.4 29.9673 31.4 28.2C31.4 26.4327 29.9673 25 28.2 25C26.4327 25 25 26.4327 25 28.2C25 29.9673 26.4327 31.4 28.2 31.4Z" stroke="#383635" stroke-width="1.5" stroke-linecap="round" stroke-linejoin="round"/>
<path d="M32 32L31 31" stroke="#383635" stroke-width="1.5" stroke-linecap="round" stroke-linejoin="round"/>
</svg>
