<svg width="24" height="24" viewBox="0 0 24 24" fill="none" xmlns="http://www.w3.org/2000/svg">
<path d="M13.73 3.50965L15.49 7.02965C15.73 7.51965 16.37 7.98965 16.91 8.07965L20.1 8.60965C22.14 8.94965 22.62 10.4296 21.15 11.8896L18.67 14.3696C18.25 14.7896 18.02 15.5996 18.15 16.1796L18.86 19.2496C19.42 21.6796 18.13 22.6196 15.98 21.3496L12.99 19.5796C12.45 19.2596 11.56 19.2596 11.01 19.5796L8.01997 21.3496C5.87997 22.6196 4.57997 21.6696 5.13997 19.2496L5.84997 16.1796C5.97997 15.5996 5.74997 14.7896 5.32997 14.3696L2.84997 11.8896C1.38997 10.4296 1.85997 8.94965 3.89997 8.60965L7.08997 8.07965C7.61997 7.98965 8.25997 7.51965 8.49997 7.02965L10.26 3.50965C11.22 1.59965 12.78 1.59965 13.73 3.50965Z" stroke="#383635" stroke-width="1.5" stroke-linecap="round" stroke-linejoin="round"/>
</svg>
