<svg width="24" height="24" viewBox="0 0 24 24" fill="none" xmlns="http://www.w3.org/2000/svg">
<path d="M12.0002 2C6.49024 2 2.00024 6.49 2.00024 12C2.00024 17.51 6.49024 22 12.0002 22C17.5102 22 22.0002 17.51 22.0002 12C22.0002 6.49 17.5102 2 12.0002 2ZM16.7802 9.7L11.1102 15.37C10.9702 15.51 10.7802 15.59 10.5802 15.59C10.3802 15.59 10.1902 15.51 10.0502 15.37L7.22024 12.54C6.93024 12.25 6.93024 11.77 7.22024 11.48C7.51024 11.19 7.99024 11.19 8.28024 11.48L10.5802 13.78L15.7202 8.64C16.0102 8.35 16.4902 8.35 16.7802 8.64C17.0702 8.93 17.0702 9.4 16.7802 9.7Z" fill="#197BE6"/>
</svg>
