<svg width="22" height="22" viewBox="0 0 22 22" fill="none" xmlns="http://www.w3.org/2000/svg">
<path d="M13.2277 0.825586L13.2273 0.825526C12.674 0.751015 11.9636 0.75 11.052 0.75H10.948C10.0376 0.75 9.32613 0.75101 8.77184 0.825512C8.19961 0.903125 7.75592 1.06217 7.40858 1.40853C7.06187 1.7562 6.90209 2.20023 6.82557 2.77139L6.82556 2.77145C6.77113 3.17738 6.75498 3.67379 6.75099 4.2783L6.74779 4.76276L6.26347 4.77484C5.69891 4.78893 5.13537 4.83034 4.57482 4.89892C3.45969 5.0496 2.63465 5.35548 1.99463 5.99447C1.355 6.63504 1.04911 7.46095 0.898549 8.57757L13.2277 0.825586ZM13.2277 0.825586C13.8002 0.902164 14.244 1.06206 14.5904 1.40855C14.9381 1.75618 15.0979 2.20008 15.1744 2.77139L15.1746 2.77256C15.2298 3.17744 15.245 3.67274 15.249 4.2783L15.2522 4.75916L15.7328 4.77474C16.3715 4.79544 16.9315 4.83362 17.423 4.89862M13.2277 0.825586L17.423 4.89862M17.423 4.89862C18.5393 5.04921 19.365 5.35509 20.0054 5.99455C20.6451 6.63516 20.9509 7.46111 21.1015 8.5778C21.249 9.67697 21.25 11.0929 21.25 12.944V13.056C21.25 14.9072 21.249 16.3241 21.1015 17.4222C20.9509 18.5389 20.6451 19.3648 20.0054 20.0054C19.3648 20.6451 18.5389 20.9509 17.4222 21.1015C16.323 21.249 14.9071 21.25 13.056 21.25H8.944C7.09284 21.25 5.67594 21.249 4.5778 21.1015C3.46105 20.9509 2.63505 20.645 1.99444 20.0053C1.35495 19.3648 1.0491 18.539 0.898557 17.4225C0.751031 16.3233 0.75 14.9073 0.75 13.056V12.944C0.75 11.0928 0.751034 9.67594 0.898517 8.5778L17.423 4.89862ZM7.24847 4.75467L7.25201 4.2485C7.25601 3.67734 7.26981 3.21933 7.32036 2.83911L7.3206 2.8373C7.39135 2.31962 7.52498 2.00273 7.7611 1.7648C8 1.52406 8.3222 1.39088 8.83831 1.32147L7.24847 4.75467ZM7.24847 4.75467L7.75465 4.75199M7.24847 4.75467L7.75465 4.75199M7.75465 4.75199C8.13139 4.75 8.52757 4.74933 8.9432 4.75H8.944M7.75465 4.75199L8.944 4.75M8.944 4.75H13.056C13.4721 4.75 13.8689 4.75067 14.2462 4.752L14.7515 4.75378M8.944 4.75L14.7515 4.75378M14.7515 4.75378L14.748 4.24849M14.7515 4.75378L14.748 4.24849M14.748 4.24849C14.744 3.67823 14.7302 3.22037 14.6797 2.83929L14.6794 2.8373M14.748 4.24849L14.6794 2.8373M14.6794 2.8373C14.6089 2.32147 14.4758 2.00065 14.2376 1.76245C13.9992 1.52412 13.6783 1.39104 13.1616 1.32058L13.1598 1.32035M14.6794 2.8373L13.1598 1.32035M13.1598 1.32035C12.6372 1.25096 11.9499 1.25 11 1.25M13.1598 1.32035L11 1.25M4.6435 5.39444L4.64354 5.39444C5.7135 5.25094 7.1061 5.25 8.999 5.25H12.999C14.8918 5.25 16.2865 5.25094 17.3545 5.39444H4.6435ZM4.6435 5.39444C3.58149 5.53696 2.87891 5.81724 2.34686 6.34803L2.34603 6.34887M4.6435 5.39444L2.34603 6.34887M2.34603 6.34887C1.81616 6.87999 1.53594 7.58265 1.39344 8.6445C1.24994 9.71254 1.249 11.1072 1.249 13C1.249 14.8928 1.24994 16.2875 1.39345 17.3565L1.39345 17.3566L2.34603 6.34887ZM17.3556 20.6055L17.3555 20.6056C16.2865 20.7491 14.8918 20.75 12.999 20.75H8.999C7.10616 20.75 5.7125 20.7491 4.6435 20.6056C4.64349 20.6056 4.64348 20.6056 4.64348 20.6056L4.71 20.11L17.3556 20.6055ZM17.3556 20.6055C18.4164 20.463 19.1193 20.1828 19.6506 19.6516M17.3556 20.6055L19.6506 19.6516M20.6045 8.64343L20.6046 8.64354C20.7481 9.7135 20.749 11.1071 20.749 13C20.749 14.8928 20.7481 16.2875 20.6046 17.3555L20.6045 8.64343ZM20.6045 8.64343C20.462 7.58257 20.1818 6.87966 19.6506 6.34845M20.6045 8.64343L19.6506 6.34845M11 1.25C10.0503 1.25 9.36247 1.25093 8.83836 1.32146L11 1.25ZM19.6506 19.6516C20.1818 19.1203 20.462 18.4174 20.6045 17.3556L19.6506 19.6516ZM19.6506 6.34845C19.1193 5.8172 18.4164 5.53695 17.3546 5.39445L19.6506 6.34845ZM11.25 9.01V9.39978L11.628 9.49489C12.5626 9.73003 13.25 10.4353 13.25 11.333C13.25 11.3993 13.2237 11.4629 13.1768 11.5098C13.1299 11.5567 13.0663 11.583 13 11.583C12.9337 11.583 12.8701 11.5567 12.8232 11.5098C12.7763 11.4629 12.75 11.3993 12.75 11.333C12.75 10.6067 12.029 9.917 11 9.917C9.97098 9.917 9.25 10.6067 9.25 11.333C9.25 12.0587 9.9703 12.75 11 12.75C12.2058 12.75 13.25 13.574 13.25 14.667C13.25 15.5644 12.5628 16.269 11.6276 16.5052L11.25 16.6006V16.99V17C11.25 17.0663 11.2237 17.1299 11.1768 17.1768C11.1299 17.2237 11.0663 17.25 11 17.25C10.9337 17.25 10.8701 17.2237 10.8232 17.1768C10.7763 17.1299 10.75 17.0663 10.75 17V16.99V16.6002L10.372 16.5051C9.43744 16.27 8.75 15.5647 8.75 14.667C8.75 14.6007 8.77634 14.5371 8.82322 14.4902C8.87011 14.4433 8.9337 14.417 9 14.417C9.0663 14.417 9.12989 14.4433 9.17678 14.4902C9.22366 14.5371 9.25 14.6007 9.25 14.667C9.25 15.3933 9.97098 16.083 11 16.083C12.029 16.083 12.75 15.3933 12.75 14.667C12.75 13.9413 12.0297 13.25 11 13.25C9.79418 13.25 8.75 12.426 8.75 11.333C8.75 10.4353 9.43744 9.73003 10.372 9.49489L10.75 9.39978V9.01V9C10.75 8.9337 10.7763 8.87011 10.8232 8.82322C10.8701 8.77634 10.9337 8.75 11 8.75C11.0663 8.75 11.1299 8.77634 11.1768 8.82322C11.2237 8.87011 11.25 8.9337 11.25 9V9.01Z" fill="#383635" stroke="#383635"/>
</svg>
