<svg width="171" height="32" viewBox="0 0 171 32" fill="none" xmlns="http://www.w3.org/2000/svg">
<path d="M148.421 8.0767L144.989 5.2432C144.064 4.47874 143.08 3.78906 142.05 3.1797L141.521 2.86672C141.363 2.74761 141.399 2.5011 141.585 2.43186C142.316 2.15765 143.9 1.70894 145.329 2.25736C145.847 2.45678 146.26 2.86118 146.482 3.37082L148.634 7.90497C148.697 8.03515 148.54 8.16256 148.423 8.0767H148.421ZM133.707 8.89933L135.15 8.71652C137.164 8.4617 139.203 8.44786 141.219 8.67775L147.518 9.3979C147.711 9.40621 147.789 9.15138 147.623 9.0489L141.394 5.2072C140.36 4.55075 138.726 4.43442 137.607 4.92744C136.474 5.42601 135.137 6.545 133.699 8.88271C133.694 8.89102 133.699 8.89933 133.707 8.89933ZM130.439 20.7845L132.043 19.2501C134.303 17.0896 136.931 15.353 139.804 14.1176L147.448 10.8354C147.692 10.6914 147.592 10.3175 147.307 10.3175H137.812C136.441 10.3175 135.081 10.6055 133.846 11.201C131.492 12.3339 128.797 14.8821 129.929 20.5519C129.976 20.7845 130.234 20.9009 130.439 20.7817V20.7845ZM148.603 12.4807C148.75 12.2785 148.459 12.0209 148.235 12.1344C145.831 13.3448 137.4 17.735 134.079 21.3911C134.079 21.3911 130.159 25.5403 135.965 31.8582C136.12 32.0271 136.497 32.0714 136.541 31.8443C137.524 26.9141 141.995 21.5213 148.603 12.4807ZM151.899 8.0767L155.331 5.2432C156.256 4.47874 157.24 3.78906 158.27 3.1797L158.799 2.86672C158.957 2.74761 158.921 2.5011 158.735 2.43186C158.004 2.15765 156.42 1.70894 154.99 2.25736C154.473 2.45678 154.06 2.86118 153.838 3.37082L151.686 7.90497C151.622 8.03515 151.78 8.16256 151.897 8.0767H151.899ZM166.621 8.88271C165.183 6.545 163.846 5.42601 162.713 4.92744C161.58 4.42888 159.957 4.55352 158.926 5.2072L152.697 9.0489C152.534 9.15138 152.608 9.40344 152.802 9.3979L159.101 8.67775C161.117 8.44786 163.156 8.45893 165.169 8.71652L166.613 8.89933C166.613 8.89933 166.626 8.88825 166.621 8.88271ZM170.388 20.5519C171.521 14.8793 168.826 12.3339 166.471 11.201C165.236 10.6083 163.876 10.3175 162.505 10.3175H153.01C152.728 10.3175 152.625 10.6914 152.869 10.8354L160.513 14.1176C163.386 15.3502 166.014 17.0896 168.274 19.2501L169.878 20.7845C170.083 20.9036 170.341 20.7845 170.388 20.5546V20.5519ZM163.779 31.8443C163.823 32.0714 164.2 32.0271 164.355 31.8582C170.161 25.5403 166.241 21.3911 166.241 21.3911C162.92 17.7322 154.486 13.3448 152.085 12.1344C151.861 12.0209 151.567 12.2785 151.717 12.4807C158.328 21.5241 162.799 26.9141 163.779 31.8443Z" fill="url(#paint0_linear_3856_23585)"/>
<path d="M22.848 6.29018C22.848 6.68626 22.6181 7.56982 22.1584 8.94087C21.6986 10.3119 21.3773 10.9961 21.1972 10.9961C20.2971 10.636 19.3913 10.2759 18.4801 9.91307C17.5688 9.553 16.5745 9.37296 15.4915 9.37296C13.0291 9.37296 10.9767 10.1928 9.33698 11.8353C7.69449 13.4778 6.87463 15.4167 6.87463 17.6519C6.87463 19.8871 7.69449 21.7567 9.33698 23.3604C11.0182 25.0195 13.0707 25.8505 15.4915 25.8505C16.832 25.8505 18.1532 25.5513 19.455 24.9586C20.7569 24.3631 21.3274 24.0667 21.1668 24.0667C21.4271 24.0667 21.718 24.8256 22.0365 26.3407C22.3356 27.7118 22.488 28.659 22.488 29.1825C22.488 29.742 21.3163 30.2905 18.9759 30.8333C17.0149 31.2848 15.5635 31.5092 14.6218 31.5092C10.4975 31.5092 7.01589 30.1215 4.17408 27.3434C1.39044 24.6373 0 21.4105 0 17.6574C0 13.9044 1.35997 10.5861 4.08268 7.91882C6.88572 5.17672 10.3784 3.80568 14.5608 3.80568C17.3638 3.80568 19.9259 4.4455 22.247 5.72792C22.6458 5.94396 22.848 6.1323 22.848 6.29572V6.29018Z" fill="url(#paint1_linear_3856_23585)"/>
<path d="M41.4776 5.5285C41.4776 7.51167 41.3281 9.3148 41.0261 10.9407C40.9652 11.3561 40.7658 11.5639 40.4251 11.5639C40.0041 11.5639 39.3698 11.5223 38.5195 11.442C37.6692 11.3617 37.0238 11.3201 36.5834 11.3201C34.0601 11.3201 32.4509 11.96 31.7501 13.2396C31.3291 14.0151 31.1186 15.6299 31.1186 18.0812V21.056C31.1186 22.0669 31.1629 23.5986 31.2543 25.6566C31.3429 27.7118 31.39 29.2463 31.39 30.2572C31.39 30.7447 31.1601 30.9885 30.7003 30.9885C30.0799 30.9885 29.1382 30.9801 27.8779 30.9608C26.6177 30.9414 25.6759 30.9331 25.0555 30.9331C24.5957 30.9331 24.3658 30.7087 24.3658 30.2572C24.3658 28.7975 24.3908 26.5956 24.4406 23.6568C24.4905 20.7181 24.5154 18.5078 24.5154 17.0287C24.5154 12.5749 24.0556 8.99351 23.1333 6.28742C23.0917 6.14339 23.0723 6.03536 23.0723 5.96335C23.0723 5.74731 23.2025 5.59497 23.4629 5.50356C24.2024 5.43155 25.2439 5.32353 26.5844 5.1795C28.7449 4.81943 29.7475 4.63939 29.5869 4.63939C29.9082 4.63939 30.1159 5.17119 30.2184 6.23479C30.3181 7.29839 30.4982 7.8302 30.7585 7.8302C30.7973 7.8302 30.8499 7.81358 30.9081 7.7748C31.7279 7.3067 32.5478 6.83584 33.3704 6.36775C34.2706 5.88026 35.193 5.52019 36.1319 5.28476C36.913 5.06871 37.9129 4.96069 39.1344 4.96069C40.6965 4.96069 41.4776 5.14904 41.4776 5.5285Z" fill="url(#paint2_linear_3856_23585)"/>
<path d="M67.1343 16.3002C67.1343 17.6353 66.4945 18.5271 65.2121 18.9786C64.3506 19.2667 58.1574 19.7985 46.6267 20.574C46.8871 22.1611 47.8565 23.5156 49.5378 24.6318C51.1387 25.6954 52.8615 26.2272 54.7007 26.2272C57.8638 26.2272 60.7665 25.3076 63.4089 23.4685C63.7302 23.233 64.0487 23.0004 64.37 22.7649C64.5307 22.7649 64.6359 22.7843 64.6858 22.8203C64.7356 22.8563 65.1123 23.4823 65.8131 24.701C66.5138 25.9197 66.8628 26.5734 66.8628 26.662C66.8628 26.7701 66.7022 26.9778 66.3837 27.2852C63.4421 30.0993 59.6669 31.5064 55.0635 31.5064C50.4601 31.5064 46.7181 30.2572 43.9539 27.7589C41.1924 25.2605 39.8103 21.9285 39.8103 17.7627C39.8103 14.0456 41.1315 10.8105 43.7738 8.04901C46.5547 5.18228 49.9699 3.74752 54.011 3.74752C57.7752 3.74752 60.9161 4.99116 63.4394 7.48121C65.9017 9.89924 67.1315 12.838 67.1315 16.3002H67.1343ZM59.991 14.6522C59.991 13.1565 59.3345 11.8298 58.0244 10.6748C56.7143 9.51978 55.238 8.94366 53.5955 8.94366C51.7536 8.94366 50.1167 9.61118 48.6874 10.9462C47.2555 12.2813 46.5409 13.777 46.5409 15.4361C46.5409 15.8155 46.9009 16.0039 47.6211 16.0039C50.582 16.0039 54.1273 15.7324 58.2488 15.1923C59.4093 15.0483 59.991 14.8682 59.991 14.6522Z" fill="url(#paint3_linear_3856_23585)"/>
<path d="M94.6904 16.4028C94.6904 17.7379 94.0505 18.6297 92.7681 19.0812C91.9067 19.3693 85.7134 19.9011 74.1828 20.6766C74.4432 22.2637 75.4126 23.6181 77.0938 24.7344C78.6948 25.798 80.4176 26.3298 82.2568 26.3298C85.4199 26.3298 88.3226 25.4102 90.965 23.571C91.2863 23.3356 91.6048 23.103 91.9261 22.8675C92.0867 22.8675 92.192 22.8869 92.2419 22.9229C92.2917 22.9589 92.6656 23.5849 93.3664 24.8036C94.0672 26.0223 94.4162 26.676 94.4162 26.7646C94.4162 26.8726 94.2555 27.0804 93.937 27.3878C90.9955 30.2019 87.2202 31.609 82.6168 31.609C78.0134 31.609 74.2714 30.3598 71.5072 27.8615C68.7457 25.3631 67.3636 22.031 67.3636 17.8653C67.3636 14.1482 68.6848 10.9131 71.3271 8.1516C74.108 5.28486 77.5232 3.8501 81.5643 3.8501C85.3257 3.8501 88.4694 5.09374 90.9927 7.58378C93.455 10.0018 94.6848 12.9406 94.6848 16.4028H94.6904ZM87.5471 14.752C87.5471 13.2563 86.8906 11.9296 85.5805 10.7746C84.2704 9.61958 82.7941 9.04346 81.1516 9.04346C79.3097 9.04346 77.6727 9.71099 76.2435 11.046C74.8115 12.3811 74.0969 13.8768 74.0969 15.5359C74.0969 15.9153 74.457 16.1037 75.1772 16.1037C78.1381 16.1037 81.6834 15.8322 85.8049 15.2921C86.9654 15.1481 87.5471 14.9681 87.5471 14.752Z" fill="url(#paint4_linear_3856_23585)"/>
<path d="M121.663 30.2878C121.663 30.6839 121.463 30.8833 121.062 30.8833C120.402 30.8833 119.413 30.875 118.103 30.8556C116.793 30.8362 115.807 30.8279 115.145 30.8279C114.785 30.8279 114.605 30.5675 114.605 30.0441C114.605 29.1605 114.636 27.8171 114.697 26.014C114.757 24.2109 114.788 22.8564 114.788 21.9562C114.788 21.2361 114.777 20.1559 114.757 18.7239C114.738 17.2891 114.727 16.2117 114.727 15.4916C114.727 13.4364 114.397 11.985 113.735 11.1347C112.935 10.1237 111.453 9.61958 109.293 9.61958C108.293 9.61958 106.9 10.1237 105.119 11.1347C103.238 12.1983 102.296 13.1455 102.296 13.9765V30.2103C102.296 30.6617 102.105 30.8861 101.726 30.8861C101.086 30.8861 100.125 30.8778 98.8422 30.8584C97.5626 30.839 96.6015 30.8307 95.9589 30.8307C95.5379 30.8307 95.3274 30.6229 95.3274 30.2075C95.3274 28.7838 95.3523 26.6455 95.4022 23.7954C95.452 20.9453 95.4769 18.7987 95.4769 17.3556C95.4769 13.5139 95.0255 9.96858 94.1253 6.72238C94.0643 6.55896 94.0366 6.44263 94.0366 6.37061C94.0366 6.19057 94.1668 6.06317 94.4272 5.99115C94.5657 5.97453 95.7124 5.80557 97.8645 5.48982C100.017 5.17406 101.141 5.01619 101.241 5.01619C101.36 5.01619 101.44 5.16021 101.482 5.44827C101.582 6.56727 101.811 7.69458 102.172 8.83019C103.213 8.09066 104.584 7.17109 106.285 6.07148C108.387 4.91647 110.417 4.34035 112.378 4.34035C116.142 4.34035 118.713 5.32363 120.095 7.29019C121.117 8.73325 121.627 11.0682 121.627 14.2978C121.627 14.8573 121.613 15.7131 121.582 16.8681C121.552 18.0231 121.538 18.8873 121.538 19.4662C121.538 20.6738 121.557 22.4798 121.599 24.8784C121.638 27.277 121.66 29.0802 121.66 30.2906L121.663 30.2878Z" fill="url(#paint5_linear_3856_23585)"/>
<path d="M22.848 6.29018C22.848 6.68626 22.6181 7.56982 22.1584 8.94087C21.6986 10.3119 21.3773 10.9961 21.1972 10.9961C20.2971 10.636 19.3913 10.2759 18.4801 9.91307C17.5688 9.553 16.5745 9.37296 15.4915 9.37296C13.0291 9.37296 10.9767 10.1928 9.33698 11.8353C7.69449 13.4778 6.87463 15.4167 6.87463 17.6519C6.87463 19.8871 7.69449 21.7567 9.33698 23.3604C11.0182 25.0195 13.0707 25.8505 15.4915 25.8505C16.832 25.8505 18.1532 25.5513 19.455 24.9586C20.7569 24.3631 21.3274 24.0667 21.1668 24.0667C21.4271 24.0667 21.718 24.8256 22.0365 26.3407C22.3356 27.7118 22.488 28.659 22.488 29.1825C22.488 29.742 21.3163 30.2905 18.9759 30.8333C17.0149 31.2848 15.5635 31.5092 14.6218 31.5092C10.4975 31.5092 7.01589 30.1215 4.17408 27.3434C1.39044 24.6373 0 21.4105 0 17.6574C0 13.9044 1.35997 10.5861 4.08268 7.91882C6.88572 5.17672 10.3784 3.80568 14.5608 3.80568C17.3638 3.80568 19.9259 4.4455 22.247 5.72792C22.6458 5.94396 22.848 6.1323 22.848 6.29572V6.29018Z" fill="url(#paint6_linear_3856_23585)"/>
<path d="M41.4776 5.5285C41.4776 7.51167 41.3281 9.3148 41.0261 10.9407C40.9652 11.3561 40.7658 11.5639 40.4251 11.5639C40.0041 11.5639 39.3698 11.5223 38.5195 11.442C37.6692 11.3617 37.0238 11.3201 36.5834 11.3201C34.0601 11.3201 32.4509 11.96 31.7501 13.2396C31.3291 14.0151 31.1186 15.6299 31.1186 18.0812V21.056C31.1186 22.0669 31.1629 23.5986 31.2543 25.6566C31.3429 27.7118 31.39 29.2463 31.39 30.2572C31.39 30.7447 31.1601 30.9885 30.7003 30.9885C30.0799 30.9885 29.1382 30.9801 27.8779 30.9608C26.6177 30.9414 25.6759 30.9331 25.0555 30.9331C24.5957 30.9331 24.3658 30.7087 24.3658 30.2572C24.3658 28.7975 24.3908 26.5956 24.4406 23.6568C24.4905 20.7181 24.5154 18.5078 24.5154 17.0287C24.5154 12.5749 24.0556 8.99351 23.1333 6.28742C23.0917 6.14339 23.0723 6.03536 23.0723 5.96335C23.0723 5.74731 23.2025 5.59497 23.4629 5.50356C24.2024 5.43155 25.2439 5.32353 26.5844 5.1795C28.7449 4.81943 29.7475 4.63939 29.5869 4.63939C29.9082 4.63939 30.1159 5.17119 30.2184 6.23479C30.3181 7.29839 30.4982 7.8302 30.7585 7.8302C30.7973 7.8302 30.8499 7.81358 30.9081 7.7748C31.7279 7.3067 32.5478 6.83584 33.3704 6.36775C34.2706 5.88026 35.193 5.52019 36.1319 5.28476C36.913 5.06871 37.9129 4.96069 39.1344 4.96069C40.6965 4.96069 41.4776 5.14904 41.4776 5.5285Z" fill="url(#paint7_linear_3856_23585)"/>
<path d="M67.1343 16.3002C67.1343 17.6353 66.4945 18.5271 65.2121 18.9786C64.3506 19.2667 58.1574 19.7985 46.6267 20.574C46.8871 22.1611 47.8565 23.5156 49.5378 24.6318C51.1387 25.6954 52.8615 26.2272 54.7007 26.2272C57.8638 26.2272 60.7665 25.3076 63.4089 23.4685C63.7302 23.233 64.0487 23.0004 64.37 22.7649C64.5307 22.7649 64.6359 22.7843 64.6858 22.8203C64.7356 22.8563 65.1123 23.4823 65.8131 24.701C66.5138 25.9197 66.8628 26.5734 66.8628 26.662C66.8628 26.7701 66.7022 26.9778 66.3837 27.2852C63.4421 30.0993 59.6669 31.5064 55.0635 31.5064C50.4601 31.5064 46.7181 30.2572 43.9539 27.7589C41.1924 25.2605 39.8103 21.9285 39.8103 17.7627C39.8103 14.0456 41.1315 10.8105 43.7738 8.04901C46.5547 5.18228 49.9699 3.74752 54.011 3.74752C57.7752 3.74752 60.9161 4.99116 63.4394 7.48121C65.9017 9.89924 67.1315 12.838 67.1315 16.3002H67.1343ZM59.991 14.6522C59.991 13.1565 59.3345 11.8298 58.0244 10.6748C56.7143 9.51978 55.238 8.94366 53.5955 8.94366C51.7536 8.94366 50.1167 9.61118 48.6874 10.9462C47.2555 12.2813 46.5409 13.777 46.5409 15.4361C46.5409 15.8155 46.9009 16.0039 47.6211 16.0039C50.582 16.0039 54.1273 15.7324 58.2488 15.1923C59.4093 15.0483 59.991 14.8682 59.991 14.6522Z" fill="url(#paint8_linear_3856_23585)"/>
<path d="M94.6904 16.4028C94.6904 17.7379 94.0505 18.6297 92.7681 19.0812C91.9067 19.3693 85.7134 19.9011 74.1828 20.6766C74.4432 22.2637 75.4126 23.6181 77.0938 24.7344C78.6948 25.798 80.4176 26.3298 82.2568 26.3298C85.4199 26.3298 88.3226 25.4102 90.965 23.571C91.2863 23.3356 91.6048 23.103 91.9261 22.8675C92.0867 22.8675 92.192 22.8869 92.2419 22.9229C92.2917 22.9589 92.6656 23.5849 93.3664 24.8036C94.0672 26.0223 94.4162 26.676 94.4162 26.7646C94.4162 26.8726 94.2555 27.0804 93.937 27.3878C90.9955 30.2019 87.2202 31.609 82.6168 31.609C78.0134 31.609 74.2714 30.3598 71.5072 27.8615C68.7457 25.3631 67.3636 22.031 67.3636 17.8653C67.3636 14.1482 68.6848 10.9131 71.3271 8.1516C74.108 5.28486 77.5232 3.8501 81.5643 3.8501C85.3257 3.8501 88.4694 5.09374 90.9927 7.58378C93.455 10.0018 94.6848 12.9406 94.6848 16.4028H94.6904ZM87.5471 14.752C87.5471 13.2563 86.8906 11.9296 85.5805 10.7746C84.2704 9.61958 82.7941 9.04346 81.1516 9.04346C79.3097 9.04346 77.6727 9.71099 76.2435 11.046C74.8115 12.3811 74.0969 13.8768 74.0969 15.5359C74.0969 15.9153 74.457 16.1037 75.1772 16.1037C78.1381 16.1037 81.6834 15.8322 85.8049 15.2921C86.9654 15.1481 87.5471 14.9681 87.5471 14.752Z" fill="url(#paint9_linear_3856_23585)"/>
<path d="M121.663 30.2878C121.663 30.6839 121.463 30.8833 121.062 30.8833C120.402 30.8833 119.413 30.875 118.103 30.8556C116.793 30.8362 115.807 30.8279 115.145 30.8279C114.785 30.8279 114.605 30.5675 114.605 30.0441C114.605 29.1605 114.636 27.8171 114.697 26.014C114.757 24.2109 114.788 22.8564 114.788 21.9562C114.788 21.2361 114.777 20.1559 114.757 18.7239C114.738 17.2891 114.727 16.2117 114.727 15.4916C114.727 13.4364 114.397 11.985 113.735 11.1347C112.935 10.1237 111.453 9.61958 109.293 9.61958C108.293 9.61958 106.9 10.1237 105.119 11.1347C103.238 12.1983 102.296 13.1455 102.296 13.9765V30.2103C102.296 30.6617 102.105 30.8861 101.726 30.8861C101.086 30.8861 100.125 30.8778 98.8422 30.8584C97.5626 30.839 96.6015 30.8307 95.9589 30.8307C95.5379 30.8307 95.3274 30.6229 95.3274 30.2075C95.3274 28.7838 95.3523 26.6455 95.4022 23.7954C95.452 20.9453 95.4769 18.7987 95.4769 17.3556C95.4769 13.5139 95.0255 9.96858 94.1253 6.72238C94.0643 6.55896 94.0366 6.44263 94.0366 6.37061C94.0366 6.19057 94.1668 6.06317 94.4272 5.99115C94.5657 5.97453 95.7124 5.80557 97.8645 5.48982C100.017 5.17406 101.141 5.01619 101.241 5.01619C101.36 5.01619 101.44 5.16021 101.482 5.44827C101.582 6.56727 101.811 7.69458 102.172 8.83019C103.213 8.09066 104.584 7.17109 106.285 6.07148C108.387 4.91647 110.417 4.34035 112.378 4.34035C116.142 4.34035 118.713 5.32363 120.095 7.29019C121.117 8.73325 121.627 11.0682 121.627 14.2978C121.627 14.8573 121.613 15.7131 121.582 16.8681C121.552 18.0231 121.538 18.8873 121.538 19.4662C121.538 20.6738 121.557 22.4798 121.599 24.8784C121.638 27.277 121.66 29.0802 121.66 30.2906L121.663 30.2878Z" fill="url(#paint10_linear_3856_23585)"/>
<path d="M94.9256 4.01344L94.5323 1.27411L93.4548 1.42922L93.3828 0.919574L96.1415 0.523495L96.2163 1.03314L95.1389 1.18824L95.5322 3.92758L94.9284 4.01344H94.9256Z" fill="url(#paint11_linear_3856_23585)"/>
<path d="M96.6871 3.76139L96.219 0.512414L96.7148 0.440396L98.4764 2.60915L98.216 2.64516L99.2713 0.0720174L99.7671 0L100.244 3.24897L99.6646 3.33206L99.3267 0.977737L99.4431 0.961119L98.5484 3.11879L98.2742 3.15756L96.7813 1.34335L96.9198 1.32396L97.2577 3.67829L96.6816 3.76139H96.6871Z" fill="url(#paint12_linear_3856_23585)"/>
<defs>
<linearGradient id="paint0_linear_3856_23585" x1="0.773062" y1="-0.142399" x2="12.3482" y2="62.7058" gradientUnits="userSpaceOnUse">
<stop stop-color="#1B2954"/>
<stop offset="0.1" stop-color="#2A497D"/>
<stop offset="0.2" stop-color="#3867A2"/>
<stop offset="0.28" stop-color="#4079B9"/>
<stop offset="0.34" stop-color="#4480C2"/>
<stop offset="0.68" stop-color="#00AAA0"/>
<stop offset="0.74" stop-color="#00A49A"/>
<stop offset="0.83" stop-color="#00948A"/>
<stop offset="0.92" stop-color="#007B6F"/>
<stop offset="1" stop-color="#005F53"/>
</linearGradient>
<linearGradient id="paint1_linear_3856_23585" x1="0.773062" y1="-0.142399" x2="12.3482" y2="62.7058" gradientUnits="userSpaceOnUse">
<stop stop-color="#1B2954"/>
<stop offset="0.1" stop-color="#2A497D"/>
<stop offset="0.2" stop-color="#3867A2"/>
<stop offset="0.28" stop-color="#4079B9"/>
<stop offset="0.34" stop-color="#4480C2"/>
<stop offset="0.68" stop-color="#00AAA0"/>
<stop offset="0.74" stop-color="#00A49A"/>
<stop offset="0.83" stop-color="#00948A"/>
<stop offset="0.92" stop-color="#007B6F"/>
<stop offset="1" stop-color="#005F53"/>
</linearGradient>
<linearGradient id="paint2_linear_3856_23585" x1="0.773062" y1="-0.142399" x2="12.3482" y2="62.7058" gradientUnits="userSpaceOnUse">
<stop stop-color="#1B2954"/>
<stop offset="0.1" stop-color="#2A497D"/>
<stop offset="0.2" stop-color="#3867A2"/>
<stop offset="0.28" stop-color="#4079B9"/>
<stop offset="0.34" stop-color="#4480C2"/>
<stop offset="0.68" stop-color="#00AAA0"/>
<stop offset="0.74" stop-color="#00A49A"/>
<stop offset="0.83" stop-color="#00948A"/>
<stop offset="0.92" stop-color="#007B6F"/>
<stop offset="1" stop-color="#005F53"/>
</linearGradient>
<linearGradient id="paint3_linear_3856_23585" x1="0.773062" y1="-0.142399" x2="12.3482" y2="62.7058" gradientUnits="userSpaceOnUse">
<stop stop-color="#1B2954"/>
<stop offset="0.1" stop-color="#2A497D"/>
<stop offset="0.2" stop-color="#3867A2"/>
<stop offset="0.28" stop-color="#4079B9"/>
<stop offset="0.34" stop-color="#4480C2"/>
<stop offset="0.68" stop-color="#00AAA0"/>
<stop offset="0.74" stop-color="#00A49A"/>
<stop offset="0.83" stop-color="#00948A"/>
<stop offset="0.92" stop-color="#007B6F"/>
<stop offset="1" stop-color="#005F53"/>
</linearGradient>
<linearGradient id="paint4_linear_3856_23585" x1="0.773062" y1="-0.142399" x2="12.3482" y2="62.7058" gradientUnits="userSpaceOnUse">
<stop stop-color="#1B2954"/>
<stop offset="0.1" stop-color="#2A497D"/>
<stop offset="0.2" stop-color="#3867A2"/>
<stop offset="0.28" stop-color="#4079B9"/>
<stop offset="0.34" stop-color="#4480C2"/>
<stop offset="0.68" stop-color="#00AAA0"/>
<stop offset="0.74" stop-color="#00A49A"/>
<stop offset="0.83" stop-color="#00948A"/>
<stop offset="0.92" stop-color="#007B6F"/>
<stop offset="1" stop-color="#005F53"/>
</linearGradient>
<linearGradient id="paint5_linear_3856_23585" x1="0.773062" y1="-0.142399" x2="12.3482" y2="62.7058" gradientUnits="userSpaceOnUse">
<stop stop-color="#1B2954"/>
<stop offset="0.1" stop-color="#2A497D"/>
<stop offset="0.2" stop-color="#3867A2"/>
<stop offset="0.28" stop-color="#4079B9"/>
<stop offset="0.34" stop-color="#4480C2"/>
<stop offset="0.68" stop-color="#00AAA0"/>
<stop offset="0.74" stop-color="#00A49A"/>
<stop offset="0.83" stop-color="#00948A"/>
<stop offset="0.92" stop-color="#007B6F"/>
<stop offset="1" stop-color="#005F53"/>
</linearGradient>
<linearGradient id="paint6_linear_3856_23585" x1="0.773062" y1="-0.142399" x2="12.3482" y2="62.7058" gradientUnits="userSpaceOnUse">
<stop stop-color="#1B2954"/>
<stop offset="0.1" stop-color="#2A497D"/>
<stop offset="0.2" stop-color="#3867A2"/>
<stop offset="0.28" stop-color="#4079B9"/>
<stop offset="0.34" stop-color="#4480C2"/>
<stop offset="0.68" stop-color="#00AAA0"/>
<stop offset="0.74" stop-color="#00A49A"/>
<stop offset="0.83" stop-color="#00948A"/>
<stop offset="0.92" stop-color="#007B6F"/>
<stop offset="1" stop-color="#005F53"/>
</linearGradient>
<linearGradient id="paint7_linear_3856_23585" x1="0.773062" y1="-0.142399" x2="12.3482" y2="62.7058" gradientUnits="userSpaceOnUse">
<stop stop-color="#1B2954"/>
<stop offset="0.1" stop-color="#2A497D"/>
<stop offset="0.2" stop-color="#3867A2"/>
<stop offset="0.28" stop-color="#4079B9"/>
<stop offset="0.34" stop-color="#4480C2"/>
<stop offset="0.68" stop-color="#00AAA0"/>
<stop offset="0.74" stop-color="#00A49A"/>
<stop offset="0.83" stop-color="#00948A"/>
<stop offset="0.92" stop-color="#007B6F"/>
<stop offset="1" stop-color="#005F53"/>
</linearGradient>
<linearGradient id="paint8_linear_3856_23585" x1="0.773062" y1="-0.142399" x2="12.3482" y2="62.7058" gradientUnits="userSpaceOnUse">
<stop stop-color="#1B2954"/>
<stop offset="0.1" stop-color="#2A497D"/>
<stop offset="0.2" stop-color="#3867A2"/>
<stop offset="0.28" stop-color="#4079B9"/>
<stop offset="0.34" stop-color="#4480C2"/>
<stop offset="0.68" stop-color="#00AAA0"/>
<stop offset="0.74" stop-color="#00A49A"/>
<stop offset="0.83" stop-color="#00948A"/>
<stop offset="0.92" stop-color="#007B6F"/>
<stop offset="1" stop-color="#005F53"/>
</linearGradient>
<linearGradient id="paint9_linear_3856_23585" x1="0.773062" y1="-0.142399" x2="12.3482" y2="62.7058" gradientUnits="userSpaceOnUse">
<stop stop-color="#1B2954"/>
<stop offset="0.1" stop-color="#2A497D"/>
<stop offset="0.2" stop-color="#3867A2"/>
<stop offset="0.28" stop-color="#4079B9"/>
<stop offset="0.34" stop-color="#4480C2"/>
<stop offset="0.68" stop-color="#00AAA0"/>
<stop offset="0.74" stop-color="#00A49A"/>
<stop offset="0.83" stop-color="#00948A"/>
<stop offset="0.92" stop-color="#007B6F"/>
<stop offset="1" stop-color="#005F53"/>
</linearGradient>
<linearGradient id="paint10_linear_3856_23585" x1="0.773062" y1="-0.142399" x2="12.3482" y2="62.7058" gradientUnits="userSpaceOnUse">
<stop stop-color="#1B2954"/>
<stop offset="0.1" stop-color="#2A497D"/>
<stop offset="0.2" stop-color="#3867A2"/>
<stop offset="0.28" stop-color="#4079B9"/>
<stop offset="0.34" stop-color="#4480C2"/>
<stop offset="0.68" stop-color="#00AAA0"/>
<stop offset="0.74" stop-color="#00A49A"/>
<stop offset="0.83" stop-color="#00948A"/>
<stop offset="0.92" stop-color="#007B6F"/>
<stop offset="1" stop-color="#005F53"/>
</linearGradient>
<linearGradient id="paint11_linear_3856_23585" x1="0.773062" y1="-0.142399" x2="12.3482" y2="62.7058" gradientUnits="userSpaceOnUse">
<stop stop-color="#1B2954"/>
<stop offset="0.1" stop-color="#2A497D"/>
<stop offset="0.2" stop-color="#3867A2"/>
<stop offset="0.28" stop-color="#4079B9"/>
<stop offset="0.34" stop-color="#4480C2"/>
<stop offset="0.68" stop-color="#00AAA0"/>
<stop offset="0.74" stop-color="#00A49A"/>
<stop offset="0.83" stop-color="#00948A"/>
<stop offset="0.92" stop-color="#007B6F"/>
<stop offset="1" stop-color="#005F53"/>
</linearGradient>
<linearGradient id="paint12_linear_3856_23585" x1="0.773062" y1="-0.142399" x2="12.3482" y2="62.7058" gradientUnits="userSpaceOnUse">
<stop stop-color="#1B2954"/>
<stop offset="0.1" stop-color="#2A497D"/>
<stop offset="0.2" stop-color="#3867A2"/>
<stop offset="0.28" stop-color="#4079B9"/>
<stop offset="0.34" stop-color="#4480C2"/>
<stop offset="0.68" stop-color="#00AAA0"/>
<stop offset="0.74" stop-color="#00A49A"/>
<stop offset="0.83" stop-color="#00948A"/>
<stop offset="0.92" stop-color="#007B6F"/>
<stop offset="1" stop-color="#005F53"/>
</linearGradient>
</defs>
</svg>
